# This file is brought to you by Roblox Corporation
# Generated by Roblox Studio

mtllib Square.mtl

g Square1

v 25.6706 1 -2.66236 
v 25.6706 1 3.33764 
v 25.6706 0 -2.66236 
v 25.6706 0 3.33764 
v 19.6706 0 -2.66236 
v 19.6706 1 -2.66236 
v 25.6706 0 -2.66236 
v 25.6706 1 -2.66236 
v 19.6706 0 -2.66236 
v 19.6706 0 3.33764 
v 19.6706 1 -2.66236 
v 19.6706 1 3.33764 
v 25.6706 0 3.33764 
v 25.6706 1 3.33764 
v 19.6706 0 3.33764 
v 19.6706 1 3.33764 
v 25.1706 1 -2.16236 
v 25.1706 0 -2.16236 
v 25.1706 1 2.83764 
v 25.1706 0 2.83764 
v 20.1706 0 2.83764 
v 20.1706 1 2.83764 
v 25.1706 0 2.83764 
v 25.1706 1 2.83764 
v 20.1706 0 -2.16236 
v 20.1706 1 -2.16236 
v 20.1706 0 2.83764 
v 20.1706 1 2.83764 
v 25.1706 0 -2.16236 
v 25.1706 1 -2.16236 
v 20.1706 0 -2.16236 
v 20.1706 1 -2.16236 
v 25.1706 0 -2.16236 
v 20.1706 0 -2.16236 
v 19.6706 0 -2.66236 
v 20.1706 1 -2.16236 
v 25.1706 1 -2.16236 
v 25.6706 1 -2.66236 
v 25.6706 1 3.33764 
v 25.1706 1 2.83764 
v 25.6706 0 3.33764 
v 25.6706 0 -2.66236 
v 20.1706 1 2.83764 
v 19.6706 1 3.33764 
v 25.1706 0 2.83764 
v 20.1706 0 2.83764 
v 19.6706 0 3.33764 
v 19.6706 1 -2.66236 

vn 1 0 0 
vn 1 0 0 
vn 1 0 0 
vn 1 0 0 
vn 0 0 -1 
vn 0 0 -1 
vn 0 0 -1 
vn 0 0 -1 
vn -1 0 0 
vn -1 0 0 
vn -1 0 0 
vn -1 0 0 
vn 0 0 1 
vn 0 0 1 
vn 0 0 1 
vn 0 0 1 
vn -1 0 0 
vn -1 0 0 
vn -1 0 0 
vn -1 0 0 
vn 0 0 -1 
vn 0 0 -1 
vn 0 0 -1 
vn 0 0 -1 
vn 1 0 0 
vn 1 0 0 
vn 1 0 0 
vn 1 0 0 
vn 0 0 1 
vn 0 0 1 
vn 0 0 1 
vn 0 0 1 
vn 0 -1 0 
vn 0 -1 0 
vn 0 -1 0 
vn 0 1 0 
vn 0 1 0 
vn 0 1 0 
vn 0 1 0 
vn 0 1 0 
vn 0 -1 0 
vn 0 -1 0 
vn 0 1 0 
vn 0 1 0 
vn 0 -1 0 
vn 0 -1 0 
vn 0 -1 0 
vn 0 1 0 

vt 48.375 1.0625 
vt 47.625 1.0625 
vt 48.375 0.9375 
vt 47.625 0.9375 
vt 48.375 0.9375 
vt 48.375 1.0625 
vt 47.625 0.9375 
vt 47.625 1.0625 
vt 47.625 0.9375 
vt 48.375 0.9375 
vt 47.625 1.0625 
vt 48.375 1.0625 
vt 48.375 0.9375 
vt 48.375 1.0625 
vt 47.625 0.9375 
vt 47.625 1.0625 
vt 47.6875 1.0625 
vt 47.6875 0.9375 
vt 48.3125 1.0625 
vt 48.3125 0.9375 
vt 48.3125 0.9375 
vt 48.3125 1.0625 
vt 47.6875 0.9375 
vt 47.6875 1.0625 
vt 48.3125 0.9375 
vt 48.3125 1.0625 
vt 47.6875 0.9375 
vt 47.6875 1.0625 
vt 48.3125 0.9375 
vt 48.3125 1.0625 
vt 47.6875 0.9375 
vt 47.6875 1.0625 
vt 48.3125 0.6875 
vt 47.6875 0.6875 
vt 47.625 0.625 
vt 48.3125 0.6875 
vt 47.6875 0.6875 
vt 47.625 0.625 
vt 47.625 1.375 
vt 47.6875 1.3125 
vt 48.375 1.375 
vt 48.375 0.625 
vt 48.3125 1.3125 
vt 48.375 1.375 
vt 48.3125 1.3125 
vt 47.6875 1.3125 
vt 47.625 1.375 
vt 48.375 0.625 

usemtl Square1Mtl

f 1/1/1 2/2/2 3/3/3 
f 2/2/2 4/4/4 3/3/3 
f 5/5/5 6/6/6 7/7/7 
f 6/6/6 8/8/8 7/7/7 
f 9/9/9 10/10/10 11/11/11 
f 10/10/10 12/12/12 11/11/11 
f 13/13/13 14/14/14 15/15/15 
f 14/14/14 16/16/16 15/15/15 
f 17/17/17 18/18/18 19/19/19 
f 18/18/18 20/20/20 19/19/19 
f 21/21/21 22/22/22 23/23/23 
f 22/22/22 24/24/24 23/23/23 
f 25/25/25 26/26/26 27/27/27 
f 26/26/26 28/28/28 27/27/27 
f 29/29/29 30/30/30 31/31/31 
f 30/30/30 32/32/32 31/31/31 
f 33/33/33 34/34/34 35/35/35 
f 36/36/36 37/37/37 38/38/38 
f 37/37/37 39/39/39 38/38/38 
f 40/40/40 39/39/39 37/37/37 
f 41/41/41 33/33/33 42/42/42 
f 33/33/33 35/35/35 42/42/42 
f 43/43/43 44/44/44 40/40/40 
f 36/36/36 44/44/44 43/43/43 
f 44/44/44 39/39/39 40/40/40 
f 45/45/45 41/41/41 46/46/46 
f 33/33/33 41/41/41 45/45/45 
f 41/41/41 47/47/47 46/46/46 
f 34/34/34 47/47/47 35/35/35 
f 46/46/46 47/47/47 34/34/34 
f 44/44/44 36/36/36 48/48/48 
f 36/36/36 38/38/38 48/48/48 

