# This file is brought to you by Roblox Corporation
# Generated by Roblox Studio

mtllib table.mtl

g Table1

v 3 1.25 -2 
v 2.75 1.5 -2 
v 3 1.25 2 
v 2.75 1.5 2 
v 2.75 1.25 -2 
v 2.75 1.25 2 
v 2.75 1.5 -2 
v 2.75 1.5 2 
v 2.75 1.25 -2 
v 2.75 1.5 -2 
v 2.75 1.25 2 
v 2.75 1.5 2 
v -2.75 1.5 -2 
v -2.75 1.5 -2 
v -2.75 1.5 -2 
v 2.75 1.5 2 
v 2.75 1.5 -2 
v -2.75 1.5 2 
v -2.75 1.5 -2 
v -2.75 1.5 -2 
v -2.75 1.5 2 
v -2.75 1.5 2 
v -2.75 1.5 2 
v -2.75 1.5 -2 
v -2.75 1.5 -2 
v -2.99997 1.25 2 
v -3 1.25 2 
v -2.99997 1.25 -2 
v -3 1.25 -2 
v -2.75 1.5 2 
v -2.75 1.5 -2 
v -3 1.25 2 
v -3 1.25 -2 
v -2.75 1.5 2 
v -2.75 1.5 2 
v -2.75 1.5 2 
v -3 0.75 -2 
v -3 0.75 2 
v -3 1 -2 
v -3 1 2 
v -2.99997 1 -2 
v -3 1 -2 
v -2.99997 1 2 
v -3 1 2 
v 3 0.75 -2 
v 3 0.75 2 
v 2.5 0.75 -2 
v 2.5 0.75 2 
v 3 1 -2 
v 3 1 2 
v 3 0.75 -2 
v 3 0.75 2 
v 3 1 2 
v 2.5 1 2 
v 3 0.75 2 
v 2.5 0.75 2 
v -2.75 1.5 2 
v -2.75 1.5 2 
v -2.75 1.25 2 
v -2.99997 1.25 2 
v -3 1.25 2 
v -2.75 1.25 2 
v 2.75 1.25 2 
v -2.75 1.5 2 
v 2.75 1.5 2 
v 2.75 1.25 2 
v 3 1.25 2 
v 2.75 1.5 2 
v 3 1.25 2 
v -2.99997 1 2 
v 3.00003 1.25 2 
v 2.75 1.25 2 
v 2.75 1.25 2 
v -2.75 1.25 2 
v -2.99997 1.25 2 
v -2.5 1 2 
v 2.5 1 2 
v 3 1 2 
v 3.00003 1 2 
v 2.5 1 -2 
v 2.5 0.75 -2 
v 2.5 1 2 
v 2.5 0.75 2 
v -2.5 1 -2 
v 2.5 1 -2 
v -2.5 1 2 
v 2.5 1 2 
v 2.5 1 -2 
v 3 1 -2 
v 2.5 0.75 -2 
v 3 0.75 -2 
v 3 1 -2 
v 3.00003 1 -2 
v 3 1 2 
v 3.00003 1 2 
v 3.00003 1 -2 
v 3.00003 1.25 -2 
v 3.00003 1 2 
v 3.00003 1.25 2 
v 3.00003 1.25 -2 
v 3 1.25 -2 
v 3.00003 1.25 2 
v 3 1.25 2 
v 3 1.25 -2 
v 2.75 1.25 -2 
v 2.75 1.5 -2 
v 2.75 1.25 -2 
v 2.75 1.25 -2 
v 2.75 1.25 2 
v 2.75 1.25 2 
v -2.75 1.25 -2 
v -2.75 1.5 -2 
v 2.75 1.25 -2 
v 2.75 1.5 -2 
v -2.75 1.5 -2 
v -2.75 1.25 -2 
v -2.75 1.5 -2 
v -2.99997 1.25 -2 
v -3 1.25 -2 
v -2.99997 1.25 2 
v -2.99997 1.25 -2 
v -2.99997 1 2 
v -2.99997 1 -2 
v -2.99997 1.25 -2 
v -2.75 1.25 -2 
v -2.99997 1 -2 
v 2.75 1.25 -2 
v 2.75 1.25 -2 
v 3 1.25 -2 
v 3.00003 1.25 -2 
v 3.00003 1 -2 
v 3 1 -2 
v -2.5 1 -2 
v 2.5 1 -2 
v 2.75 0.75 -2 
v 3 0.75 -2 
v 2.75 -1.5 -2 
v 3 -1.5 -2 
v 3 0.75 -2 
v 3 0.75 2 
v 3 -1.5 -2 
v 3 -1.5 2 
v 2.75 0.75 2 
v 2.75 -1.5 2 
v 3 0.75 2 
v 3 -1.5 2 
v 3 0.75 2 
v 3 0.75 -2 
v 2.75 0.75 2 
v 2.75 0.75 -2 
v 2.5 0.75 -2 
v 2.5 0.75 2 
v 2.75 0.75 -2 
v 2.75 0.75 2 
v 2.75 0.75 2 
v 2.5 0.75 2 
v 2.75 -1.5 2 
v 2.75 -1.5 -2 
v 3 -1.5 -2 
v 2.75 -1.5 2 
v 3 -1.5 2 
v 2.5 0.75 -2 
v 2.75 0.75 -2 
v 2.75 -1.5 -2 
v 2.75 -1.5 -2 
v 2.75 -1.5 2 
v 2.5 0.75 -2 
v 2.5 0.75 2 
v -3 -1.5 -2 
v -3 -1.5 2 
v -3 0.75 -2 
v -3 0.75 2 
v -2.75 0.75 2 
v -3 0.75 2 
v -2.75 -1.5 2 
v -3 -1.5 2 
v -2.75 0.75 -2 
v -3 0.75 -2 
v -2.75 0.75 2 
v -3 0.75 2 
v -3 -1.5 -2 
v -2.75 -1.5 -2 
v -3 -1.5 2 
v -2.75 -1.5 2 
v -2.75 -1.5 -2 
v -3 -1.5 -2 
v -2.75 0.75 -2 
v -3 0.75 -2 
v -2.75 0.75 -2 
v -2.5 0.75 -2 
v -2.75 -1.5 -2 
v -2.5 0.75 -2 
v -2.75 0.75 -2 
v -2.5 0.75 2 
v -2.75 0.75 2 
v -2.75 -1.5 -2 
v -2.5 0.75 -2 
v -2.75 -1.5 2 
v -2.5 0.75 2 
v -2.75 -1.5 2 
v -2.5 0.75 2 
v -2.75 0.75 2 
v -3 0.75 -2 
v -2.5 0.75 -2 
v -3 0.75 2 
v -2.5 0.75 2 
v -2.5 0.75 2 
v -2.5 0.75 -2 
v -2.5 1 2 
v -2.5 1 -2 
v -3 0.75 -2 
v -3 1 -2 
v -2.5 0.75 -2 
v -2.99997 1 -2 
v -2.5 1 -2 
v -2.99997 1 2 
v -3 0.75 2 
v -2.5 1 2 
v -3 1 2 
v -2.5 0.75 2 

vn 0.708661 0.708661 0 
vn 0.708661 0.708661 0 
vn 0.708661 0.708661 0 
vn 0.708661 0.708661 0 
vn -1 0 0 
vn -1 0 0 
vn -1 0 0 
vn -1 0 0 
vn 1 0 0 
vn 1 0 0 
vn 1 0 0 
vn 1 0 0 
vn 0 0 -1 
vn 0 0 -1 
vn 0 0 -1 
vn 0 1 0 
vn 0 1 0 
vn 0 1 0 
vn 0 1 0 
vn 0 1 0 
vn 0 1 0 
vn -1 0 0 
vn -1 0 0 
vn -1 0 0 
vn -1 0 0 
vn 0 -1 0 
vn 0 -1 0 
vn 0 -1 0 
vn 0 -1 0 
vn -0.708661 0.708661 0 
vn -0.708661 0.708661 0 
vn -0.708661 0.708661 0 
vn -0.708661 0.708661 0 
vn 0 0 1 
vn 0 0 1 
vn 0 0 1 
vn -1 0 0 
vn -1 0 0 
vn -1 0 0 
vn -1 0 0 
vn 0 1 0 
vn 0 1 0 
vn 0 1 0 
vn 0 1 0 
vn 0 -1 0 
vn 0 -1 0 
vn 0 -1 0 
vn 0 -1 0 
vn 1 0 0 
vn 1 0 0 
vn 1 0 0 
vn 1 0 0 
vn 0 0 1 
vn 0 0 1 
vn 0 0 1 
vn 0 0 1 
vn 0 0 1 
vn 0 0 1 
vn 0 0 1 
vn 0 0 1 
vn 0 0 1 
vn 0 0 1 
vn 0 0 1 
vn 0 0 1 
vn 0 0 1 
vn 0 0 1 
vn 0 0 1 
vn 0 0 1 
vn 0 0 1 
vn 0 0 1 
vn 0 0 1 
vn 0 0 1 
vn 0 0 1 
vn 0 0 1 
vn 0 0 1 
vn 0 0 1 
vn 0 0 1 
vn 0 0 1 
vn 0 0 1 
vn -1 0 0 
vn -1 0 0 
vn -1 0 0 
vn -1 0 0 
vn 0 -1 0 
vn 0 -1 0 
vn 0 -1 0 
vn 0 -1 0 
vn 0 0 -1 
vn 0 0 -1 
vn 0 0 -1 
vn 0 0 -1 
vn 0 -1 0 
vn 0 -1 0 
vn 0 -1 0 
vn 0 -1 0 
vn 1 0 0 
vn 1 0 0 
vn 1 0 0 
vn 1 0 0 
vn 0 1 0 
vn 0 1 0 
vn 0 1 0 
vn 0 1 0 
vn 0 0 -1 
vn 0 0 -1 
vn 0 0 -1 
vn 0 1 0 
vn 0 1 0 
vn 0 1 0 
vn 0 1 0 
vn 0 0 -1 
vn 0 0 -1 
vn 0 0 -1 
vn 0 0 -1 
vn 0 0 -1 
vn 0 0 -1 
vn 0 0 -1 
vn 0 0 -1 
vn 0 0 -1 
vn -1 0 0 
vn -1 0 0 
vn -1 0 0 
vn -1 0 0 
vn 0 0 -1 
vn 0 0 -1 
vn 0 0 -1 
vn 0 0 -1 
vn 0 0 -1 
vn 0 0 -1 
vn 0 0 -1 
vn 0 0 -1 
vn 0 0 -1 
vn 0 0 -1 
vn 0 0 -1 
vn 0 0 -1 
vn 0 0 -1 
vn 0 0 -1 
vn 0 0 -1 
vn 1 0 0 
vn 1 0 0 
vn 1 0 0 
vn 1 0 0 
vn 0 0 1 
vn 0 0 1 
vn 0 0 1 
vn 0 0 1 
vn 0 1 0 
vn 0 1 0 
vn 0 1 0 
vn 0 1 0 
vn 0 1 0 
vn 0 1 0 
vn 0 1 0 
vn 0 1 0 
vn 0 0 1 
vn 0 0 1 
vn 0 0 1 
vn 0 -1 0 
vn 0 -1 0 
vn 0 -1 0 
vn 0 -1 0 
vn 0 0 -1 
vn 0 0 -1 
vn 0 0 -1 
vn -0.992126 -0.110236 0 
vn -0.992126 -0.110236 0 
vn -0.992126 -0.110236 0 
vn -0.992126 -0.110236 0 
vn -1 0 0 
vn -1 0 0 
vn -1 0 0 
vn -1 0 0 
vn 0 0 1 
vn 0 0 1 
vn 0 0 1 
vn 0 0 1 
vn 0 1 0 
vn 0 1 0 
vn 0 1 0 
vn 0 1 0 
vn 0 -1 0 
vn 0 -1 0 
vn 0 -1 0 
vn 0 -1 0 
vn 0 0 -1 
vn 0 0 -1 
vn 0 0 -1 
vn 0 0 -1 
vn 0 0 -1 
vn 0 0 -1 
vn 0 0 -1 
vn 0 1 0 
vn 0 1 0 
vn 0 1 0 
vn 0 1 0 
vn 0.992126 -0.110236 0 
vn 0.992126 -0.110236 0 
vn 0.992126 -0.110236 0 
vn 0.992126 -0.110236 0 
vn 0 0 1 
vn 0 0 1 
vn 0 0 1 
vn 0 -1 0 
vn 0 -1 0 
vn 0 -1 0 
vn 0 -1 0 
vn 1 0 0 
vn 1 0 0 
vn 1 0 0 
vn 1 0 0 
vn 0 0 -1 
vn 0 0 -1 
vn 0 0 -1 
vn 0 0 -1 
vn 0 0 -1 
vn 0 0 1 
vn 0 0 1 
vn 0 0 1 
vn 0 0 1 
vn 0 0 1 

vt 4.1496 5.84146 
vt 4.18085 5.84146 
vt 4.1496 6.34146 
vt 4.18085 6.34146 
vt 4.2746 6.24771 
vt 4.7746 6.24771 
vt 4.2746 6.27896 
vt 4.7746 6.27896 
vt 4.7746 6.24771 
vt 4.7746 6.27896 
vt 4.2746 6.24771 
vt 4.2746 6.27896 
vt 4.86835 6.27896 
vt 4.86835 6.27896 
vt 4.86835 6.27896 
vt 4.18085 6.34146 
vt 4.18085 5.84146 
vt 4.86835 6.34146 
vt 4.86835 5.84146 
vt 4.86835 5.84146 
vt 4.86835 6.34146 
vt 4.7746 6.27896 
vt 4.7746 6.27896 
vt 4.2746 6.27896 
vt 4.2746 6.27896 
vt 4.1496 6.34146 
vt 4.1496 6.34146 
vt 4.1496 5.84146 
vt 4.1496 5.84146 
vt 4.86835 6.34146 
vt 4.86835 5.84146 
vt 4.8996 6.34146 
vt 4.8996 5.84146 
vt 4.18085 6.27896 
vt 4.18085 6.27896 
vt 4.18085 6.27896 
vt 4.2746 6.18521 
vt 4.7746 6.18521 
vt 4.2746 6.21646 
vt 4.7746 6.21646 
vt 4.89959 5.84146 
vt 4.8996 5.84146 
vt 4.89959 6.34146 
vt 4.8996 6.34146 
vt 4.8996 5.84146 
vt 4.8996 6.34146 
vt 4.8371 5.84146 
vt 4.8371 6.34146 
vt 4.7746 6.21646 
vt 4.2746 6.21646 
vt 4.7746 6.18521 
vt 4.2746 6.18521 
vt 4.8996 6.21646 
vt 4.8371 6.21646 
vt 4.8996 6.18521 
vt 4.8371 6.18521 
vt 4.18085 6.27896 
vt 4.18085 6.27896 
vt 4.18085 6.24771 
vt 4.1496 6.24771 
vt 4.1496 6.24771 
vt 4.18085 6.24771 
vt 4.86835 6.24771 
vt 4.18085 6.27896 
vt 4.86835 6.27896 
vt 4.86835 6.24771 
vt 4.8996 6.24771 
vt 4.86835 6.27896 
vt 4.8996 6.24771 
vt 4.1496 6.21646 
vt 4.8996 6.24771 
vt 4.86835 6.24771 
vt 4.86835 6.24771 
vt 4.18085 6.24771 
vt 4.1496 6.24771 
vt 4.2121 6.21646 
vt 4.8371 6.21646 
vt 4.8996 6.21646 
vt 4.8996 6.21646 
vt 4.2746 6.21646 
vt 4.2746 6.18521 
vt 4.7746 6.21646 
vt 4.7746 6.18521 
vt 4.2121 5.84146 
vt 4.8371 5.84146 
vt 4.2121 6.34146 
vt 4.8371 6.34146 
vt 4.2121 6.21646 
vt 4.1496 6.21646 
vt 4.2121 6.18521 
vt 4.1496 6.18521 
vt 4.8996 5.84146 
vt 4.8996 5.84146 
vt 4.8996 6.34146 
vt 4.8996 6.34146 
vt 4.7746 6.21646 
vt 4.7746 6.24771 
vt 4.2746 6.21646 
vt 4.2746 6.24771 
vt 4.14959 5.84146 
vt 4.1496 5.84146 
vt 4.14959 6.34146 
vt 4.1496 6.34146 
vt 4.1496 6.24771 
vt 4.18085 6.24771 
vt 4.18085 6.27896 
vt 4.18085 5.84146 
vt 4.18085 5.84146 
vt 4.18085 6.34146 
vt 4.18085 6.34146 
vt 4.86835 6.24771 
vt 4.86835 6.27896 
vt 4.18085 6.24771 
vt 4.18085 6.27896 
vt 4.86835 6.27896 
vt 4.86835 6.24771 
vt 4.86835 6.27896 
vt 4.89959 6.24771 
vt 4.8996 6.24771 
vt 4.7746 6.24771 
vt 4.2746 6.24771 
vt 4.7746 6.21646 
vt 4.2746 6.21646 
vt 4.89959 6.24771 
vt 4.86835 6.24771 
vt 4.89959 6.21646 
vt 4.18085 6.24771 
vt 4.18085 6.24771 
vt 4.1496 6.24771 
vt 4.14959 6.24771 
vt 4.14959 6.21646 
vt 4.1496 6.21646 
vt 4.8371 6.21646 
vt 4.2121 6.21646 
vt 4.18085 6.18521 
vt 4.1496 6.18521 
vt 4.18085 5.90396 
vt 4.1496 5.90396 
vt 4.7746 6.18521 
vt 4.2746 6.18521 
vt 4.7746 5.90396 
vt 4.2746 5.90396 
vt 4.86835 6.18521 
vt 4.86835 5.90396 
vt 4.8996 6.18521 
vt 4.8996 5.90396 
vt 4.1496 6.34146 
vt 4.1496 5.84146 
vt 4.18085 6.34146 
vt 4.18085 5.84146 
vt 4.2121 5.84146 
vt 4.2121 6.34146 
vt 4.18085 5.84146 
vt 4.18085 6.34146 
vt 4.86835 6.18521 
vt 4.8371 6.18521 
vt 4.86835 5.90396 
vt 4.86835 5.84146 
vt 4.8996 5.84146 
vt 4.86835 6.34146 
vt 4.8996 6.34146 
vt 4.2121 6.18521 
vt 4.18085 6.18521 
vt 4.18085 5.90396 
vt 4.2746 5.90396 
vt 4.7746 5.90396 
vt 4.2746 6.18521 
vt 4.7746 6.18521 
vt 4.2746 5.90396 
vt 4.7746 5.90396 
vt 4.2746 6.18521 
vt 4.7746 6.18521 
vt 4.18085 6.18521 
vt 4.1496 6.18521 
vt 4.18085 5.90396 
vt 4.1496 5.90396 
vt 4.86835 5.84146 
vt 4.8996 5.84146 
vt 4.86835 6.34146 
vt 4.8996 6.34146 
vt 4.1496 5.84146 
vt 4.18085 5.84146 
vt 4.1496 6.34146 
vt 4.18085 6.34146 
vt 4.86835 5.90396 
vt 4.8996 5.90396 
vt 4.86835 6.18521 
vt 4.8996 6.18521 
vt 4.86835 6.18521 
vt 4.8371 6.18521 
vt 4.86835 5.90396 
vt 4.8371 5.84146 
vt 4.86835 5.84146 
vt 4.8371 6.34146 
vt 4.86835 6.34146 
vt 4.7746 5.90396 
vt 4.7746 6.18521 
vt 4.2746 5.90396 
vt 4.2746 6.18521 
vt 4.18085 5.90396 
vt 4.2121 6.18521 
vt 4.18085 6.18521 
vt 4.1496 5.84146 
vt 4.2121 5.84146 
vt 4.1496 6.34146 
vt 4.2121 6.34146 
vt 4.2746 6.18521 
vt 4.7746 6.18521 
vt 4.2746 6.21646 
vt 4.7746 6.21646 
vt 4.8996 6.18521 
vt 4.8996 6.21646 
vt 4.8371 6.18521 
vt 4.89959 6.21646 
vt 4.8371 6.21646 
vt 4.1496 6.21646 
vt 4.1496 6.18521 
vt 4.2121 6.21646 
vt 4.1496 6.21646 
vt 4.2121 6.18521 

usemtl Table1Mtl

f 1/1/1 2/2/2 3/3/3 
f 2/2/2 4/4/4 3/3/3 
f 5/5/5 6/6/6 7/7/7 
f 6/6/6 8/8/8 7/7/7 
f 9/9/9 10/10/10 11/11/11 
f 10/10/10 12/12/12 11/11/11 
f 13/13/13 14/14/14 15/15/15 
f 16/16/16 17/17/17 18/18/18 
f 17/17/17 19/19/19 18/18/18 
f 19/19/19 20/20/20 18/18/18 
f 20/20/20 21/21/21 18/18/18 
f 22/22/22 23/23/23 24/24/24 
f 23/23/23 25/25/25 24/24/24 
f 26/26/26 27/27/27 28/28/28 
f 27/27/27 29/29/29 28/28/28 
f 30/30/30 31/31/31 32/32/32 
f 31/31/31 33/33/33 32/32/32 
f 34/34/34 35/35/35 36/36/36 
f 37/37/37 38/38/38 39/39/39 
f 38/38/38 40/40/40 39/39/39 
f 41/41/41 42/42/42 43/43/43 
f 42/42/42 44/44/44 43/43/43 
f 45/45/45 46/46/46 47/47/47 
f 46/46/46 48/48/48 47/47/47 
f 49/49/49 50/50/50 51/51/51 
f 50/50/50 52/52/52 51/51/51 
f 53/53/53 54/54/54 55/55/55 
f 54/54/54 56/56/56 55/55/55 
f 57/57/57 58/58/58 59/59/59 
f 58/58/58 60/60/60 59/59/59 
f 61/61/61 60/60/60 58/58/58 
f 62/62/62 63/63/63 64/64/64 
f 63/63/63 65/65/65 64/64/64 
f 66/66/66 67/67/67 68/68/68 
f 69/69/69 70/70/70 71/71/71 
f 72/72/72 70/70/70 69/69/69 
f 73/73/73 70/70/70 72/72/72 
f 74/74/74 70/70/70 73/73/73 
f 75/75/75 70/70/70 74/74/74 
f 70/70/70 76/76/76 71/71/71 
f 76/76/76 77/77/77 71/71/71 
f 77/77/77 78/78/78 71/71/71 
f 78/78/78 79/79/79 71/71/71 
f 80/80/80 81/81/81 82/82/82 
f 81/81/81 83/83/83 82/82/82 
f 84/84/84 85/85/85 86/86/86 
f 85/85/85 87/87/87 86/86/86 
f 88/88/88 89/89/89 90/90/90 
f 89/89/89 91/91/91 90/90/90 
f 92/92/92 93/93/93 94/94/94 
f 93/93/93 95/95/95 94/94/94 
f 96/96/96 97/97/97 98/98/98 
f 97/97/97 99/99/99 98/98/98 
f 100/100/100 101/101/101 102/102/102 
f 101/101/101 103/103/103 102/102/102 
f 104/104/104 105/105/105 106/106/106 
f 107/107/107 108/108/108 109/109/109 
f 108/108/108 110/110/110 109/109/109 
f 111/111/111 112/112/112 113/113/113 
f 112/112/112 114/114/114 113/113/113 
f 115/115/115 116/116/116 117/117/117 
f 116/116/116 118/118/118 117/117/117 
f 118/118/118 119/119/119 117/117/117 
f 120/120/120 121/121/121 122/122/122 
f 121/121/121 123/123/123 122/122/122 
f 124/124/124 125/125/125 126/126/126 
f 125/125/125 127/127/127 126/126/126 
f 127/127/127 128/128/128 126/126/126 
f 128/128/128 129/129/129 126/126/126 
f 129/129/129 130/130/130 126/126/126 
f 131/131/131 132/132/132 126/126/126 
f 131/131/131 126/126/126 130/130/130 
f 132/132/132 133/133/133 126/126/126 
f 134/134/134 133/133/133 132/132/132 
f 135/135/135 136/136/136 137/137/137 
f 136/136/136 138/138/138 137/137/137 
f 139/139/139 140/140/140 141/141/141 
f 140/140/140 142/142/142 141/141/141 
f 143/143/143 144/144/144 145/145/145 
f 144/144/144 146/146/146 145/145/145 
f 147/147/147 148/148/148 149/149/149 
f 148/148/148 150/150/150 149/149/149 
f 151/151/151 152/152/152 153/153/153 
f 152/152/152 154/154/154 153/153/153 
f 155/155/155 156/156/156 157/157/157 
f 158/158/158 159/159/159 160/160/160 
f 159/159/159 161/161/161 160/160/160 
f 162/162/162 163/163/163 164/164/164 
f 165/165/165 166/166/166 167/167/167 
f 166/166/166 168/168/168 167/167/167 
f 169/169/169 170/170/170 171/171/171 
f 170/170/170 172/172/172 171/171/171 
f 173/173/173 174/174/174 175/175/175 
f 174/174/174 176/176/176 175/175/175 
f 177/177/177 178/178/178 179/179/179 
f 178/178/178 180/180/180 179/179/179 
f 181/181/181 182/182/182 183/183/183 
f 182/182/182 184/184/184 183/183/183 
f 185/185/185 186/186/186 187/187/187 
f 186/186/186 188/188/188 187/187/187 
f 189/189/189 190/190/190 191/191/191 
f 192/192/192 193/193/193 194/194/194 
f 193/193/193 195/195/195 194/194/194 
f 196/196/196 197/197/197 198/198/198 
f 197/197/197 199/199/199 198/198/198 
f 200/200/200 201/201/201 202/202/202 
f 203/203/203 204/204/204 205/205/205 
f 204/204/204 206/206/206 205/205/205 
f 207/207/207 208/208/208 209/209/209 
f 208/208/208 210/210/210 209/209/209 
f 211/211/211 212/212/212 213/213/213 
f 212/212/212 214/214/214 213/213/213 
f 214/214/214 215/215/215 213/213/213 
f 216/216/216 217/217/217 218/218/218 
f 219/219/219 217/217/217 216/216/216 
f 217/217/217 220/220/220 218/218/218 

