# This file is brought to you by Roblox Corporation
# Generated by Roblox Studio

mtllib Cross.mtl

g Cross1

v 4.05732 1 2.82675 
v 3.32664 1 3.55742 
v 4.05732 0 2.82675 
v 3.32664 0 3.55742 
v -0.326746 0 -1.55732 
v -1.05742 0 -0.826639 
v -0.326746 1 -1.55732 
v -1.05742 1 -0.826639 
v 4.05732 0 -0.826639 
v 3.32664 0 -1.55732 
v 4.05732 1 -0.826639 
v 3.32664 1 -1.55732 
v -0.326746 1 3.55742 
v -1.05742 1 2.82675 
v -0.326746 0 3.55742 
v -1.05742 0 2.82675 
v 1.49995 1 0.269377 
v 0.769269 1 1.00005 
v 2.23062 1 1.00005 
v 1.49995 1 1.73073 
v 0.769269 0 1.00005 
v 1.49995 0 0.269377 
v 1.49995 0 1.73073 
v 2.23062 0 1.00005 
v -1.05742 1 2.82675 
v -0.326746 1 3.55742 
v -1.05742 1 2.82675 
v 0.769269 1 1.00005 
v -1.05742 0 2.82675 
v 0.769269 0 1.00005 
v -1.05742 0 2.82675 
v -0.326746 0 3.55742 
v 1.49995 1 1.73073 
v -0.326746 1 3.55742 
v 1.49995 0 1.73073 
v -0.326746 0 3.55742 
v 4.05732 1 -0.826639 
v 2.23062 1 1.00005 
v 4.05732 0 -0.826639 
v 2.23062 0 1.00005 
v 3.32664 0 -1.55732 
v 4.05732 0 -0.826639 
v 1.49995 1 0.269377 
v 3.32664 1 -1.55732 
v 1.49995 0 0.269377 
v 3.32664 0 -1.55732 
v 3.32664 1 -1.55732 
v 4.05732 1 -0.826639 
v 1.49995 1 1.73073 
v 3.32664 1 3.55742 
v 2.23062 1 1.00005 
v 4.05732 1 2.82675 
v 3.32664 1 3.55742 
v 1.49995 1 1.73073 
v 3.32664 0 3.55742 
v 1.49995 0 1.73073 
v 3.32664 0 3.55742 
v 1.49995 0 1.73073 
v 4.05732 0 2.82675 
v 2.23062 0 1.00005 
v 2.23062 1 1.00005 
v 4.05732 1 2.82675 
v 2.23062 0 1.00005 
v 4.05732 0 2.82675 
v -0.326746 1 -1.55732 
v 1.49995 1 0.269377 
v -0.326746 0 -1.55732 
v 1.49995 0 0.269377 
v 0.769269 0 1.00005 
v -1.05742 0 -0.826639 
v 1.49995 0 0.269377 
v -0.326746 0 -1.55732 
v 0.769269 1 1.00005 
v -1.05742 1 -0.826639 
v 0.769269 0 1.00005 
v -1.05742 0 -0.826639 
v -1.05742 1 -0.826639 
v 0.769269 1 1.00005 
v -0.326746 1 -1.55732 
v 1.49995 1 0.269377 

vn 0.708661 0 0.708661 
vn 0.708661 0 0.708661 
vn 0.708661 0 0.708661 
vn 0.708661 0 0.708661 
vn -0.708661 0 -0.708661 
vn -0.708661 0 -0.708661 
vn -0.708661 0 -0.708661 
vn -0.708661 0 -0.708661 
vn 0.708661 0 -0.708661 
vn 0.708661 0 -0.708661 
vn 0.708661 0 -0.708661 
vn 0.708661 0 -0.708661 
vn -0.708661 0 0.708661 
vn -0.708661 0 0.708661 
vn -0.708661 0 0.708661 
vn -0.708661 0 0.708661 
vn 0 1 0 
vn 0 1 0 
vn 0 1 0 
vn 0 1 0 
vn 0 -1 0 
vn 0 -1 0 
vn 0 -1 0 
vn 0 -1 0 
vn 0 1 0 
vn 0 1 0 
vn -0.708661 0 -0.708661 
vn -0.708661 0 -0.708661 
vn -0.708661 0 -0.708661 
vn -0.708661 0 -0.708661 
vn 0 -1 0 
vn 0 -1 0 
vn 0.708661 0 0.708661 
vn 0.708661 0 0.708661 
vn 0.708661 0 0.708661 
vn 0.708661 0 0.708661 
vn 0.708661 0 0.708661 
vn 0.708661 0 0.708661 
vn 0.708661 0 0.708661 
vn 0.708661 0 0.708661 
vn 0 -1 0 
vn 0 -1 0 
vn -0.708661 0 -0.708661 
vn -0.708661 0 -0.708661 
vn -0.708661 0 -0.708661 
vn -0.708661 0 -0.708661 
vn 0 1 0 
vn 0 1 0 
vn 0 1 0 
vn 0 1 0 
vn 0 1 0 
vn 0 1 0 
vn -0.708661 0 0.708661 
vn -0.708661 0 0.708661 
vn -0.708661 0 0.708661 
vn -0.708661 0 0.708661 
vn 0 -1 0 
vn 0 -1 0 
vn 0 -1 0 
vn 0 -1 0 
vn 0.708661 0 -0.708661 
vn 0.708661 0 -0.708661 
vn 0.708661 0 -0.708661 
vn 0.708661 0 -0.708661 
vn 0.708661 0 -0.708661 
vn 0.708661 0 -0.708661 
vn 0.708661 0 -0.708661 
vn 0.708661 0 -0.708661 
vn 0 -1 0 
vn 0 -1 0 
vn 0 -1 0 
vn 0 -1 0 
vn -0.708661 0 0.708661 
vn -0.708661 0 0.708661 
vn -0.708661 0 0.708661 
vn -0.708661 0 0.708661 
vn 0 1 0 
vn 0 1 0 
vn 0 1 0 
vn 0 1 0 

vt 60.0646 -46.9375 
vt 59.9354 -46.9375 
vt 60.0646 -47.0625 
vt 59.9354 -47.0625 
vt 59.9354 -47.0625 
vt 60.0646 -47.0625 
vt 59.9354 -46.9375 
vt 60.0646 -46.9375 
vt 59.9354 -47.0625 
vt 60.0646 -47.0625 
vt 59.9354 -46.9375 
vt 60.0646 -46.9375 
vt 60.0646 -46.9375 
vt 59.9354 -46.9375 
vt 60.0646 -47.0625 
vt 59.9354 -47.0625 
vt 60.0646 -47.0646 
vt 60.0646 -46.9354 
vt 59.9354 -47.0646 
vt 59.9354 -46.9354 
vt 59.9354 -46.9354 
vt 59.9354 -47.0646 
vt 60.0646 -46.9354 
vt 60.0646 -47.0646 
vt 60.0646 -46.6125 
vt 59.9354 -46.6125 
vt 60.3875 -46.9375 
vt 60.0646 -46.9375 
vt 60.3875 -47.0625 
vt 60.0646 -47.0625 
vt 59.9354 -46.6125 
vt 60.0646 -46.6125 
vt 59.9354 -46.9375 
vt 59.6125 -46.9375 
vt 59.9354 -47.0625 
vt 59.6125 -47.0625 
vt 60.3875 -46.9375 
vt 60.0646 -46.9375 
vt 60.3875 -47.0625 
vt 60.0646 -47.0625 
vt 59.9354 -47.3875 
vt 60.0646 -47.3875 
vt 59.9354 -46.9375 
vt 59.6125 -46.9375 
vt 59.9354 -47.0625 
vt 59.6125 -47.0625 
vt 60.0646 -47.3875 
vt 59.9354 -47.3875 
vt 59.9354 -46.9354 
vt 59.6125 -46.9354 
vt 59.9354 -47.0646 
vt 59.6125 -47.0646 
vt 60.3875 -46.9375 
vt 60.0646 -46.9375 
vt 60.3875 -47.0625 
vt 60.0646 -47.0625 
vt 60.3875 -46.9354 
vt 60.0646 -46.9354 
vt 60.3875 -47.0646 
vt 60.0646 -47.0646 
vt 59.9354 -46.9375 
vt 59.6125 -46.9375 
vt 59.9354 -47.0625 
vt 59.6125 -47.0625 
vt 60.3875 -46.9375 
vt 60.0646 -46.9375 
vt 60.3875 -47.0625 
vt 60.0646 -47.0625 
vt 59.9354 -46.9354 
vt 59.6125 -46.9354 
vt 59.9354 -47.0646 
vt 59.6125 -47.0646 
vt 59.9354 -46.9375 
vt 59.6125 -46.9375 
vt 59.9354 -47.0625 
vt 59.6125 -47.0625 
vt 60.3875 -46.9354 
vt 60.0646 -46.9354 
vt 60.3875 -47.0646 
vt 60.0646 -47.0646 

usemtl Cross1Mtl

f 1/1/1 2/2/2 3/3/3 
f 2/2/2 4/4/4 3/3/3 
f 5/5/5 6/6/6 7/7/7 
f 6/6/6 8/8/8 7/7/7 
f 9/9/9 10/10/10 11/11/11 
f 10/10/10 12/12/12 11/11/11 
f 13/13/13 14/14/14 15/15/15 
f 14/14/14 16/16/16 15/15/15 
f 17/17/17 18/18/18 19/19/19 
f 18/18/18 20/20/20 19/19/19 
f 21/21/21 22/22/22 23/23/23 
f 22/22/22 24/24/24 23/23/23 
f 18/18/18 25/25/25 20/20/20 
f 25/25/25 26/26/26 20/20/20 
f 27/27/27 28/28/28 29/29/29 
f 28/28/28 30/30/30 29/29/29 
f 31/31/31 21/21/21 32/32/32 
f 21/21/21 23/23/23 32/32/32 
f 33/33/33 34/34/34 35/35/35 
f 34/34/34 36/36/36 35/35/35 
f 37/37/37 38/38/38 39/39/39 
f 38/38/38 40/40/40 39/39/39 
f 22/22/22 41/41/41 24/24/24 
f 41/41/41 42/42/42 24/24/24 
f 43/43/43 44/44/44 45/45/45 
f 44/44/44 46/46/46 45/45/45 
f 47/47/47 17/17/17 48/48/48 
f 17/17/17 19/19/19 48/48/48 
f 49/49/49 50/50/50 51/51/51 
f 50/50/50 52/52/52 51/51/51 
f 53/53/53 54/54/54 55/55/55 
f 54/54/54 56/56/56 55/55/55 
f 57/57/57 58/58/58 59/59/59 
f 58/58/58 60/60/60 59/59/59 
f 61/61/61 62/62/62 63/63/63 
f 62/62/62 64/64/64 63/63/63 
f 65/65/65 66/66/66 67/67/67 
f 66/66/66 68/68/68 67/67/67 
f 69/69/69 70/70/70 71/71/71 
f 70/70/70 72/72/72 71/71/71 
f 73/73/73 74/74/74 75/75/75 
f 74/74/74 76/76/76 75/75/75 
f 77/77/77 78/78/78 79/79/79 
f 78/78/78 80/80/80 79/79/79 

