# This file is brought to you by Roblox Corporation
# Generated by Roblox Studio

mtllib plaqueondulé.mtl

g Plaqueonduler1

v 6 0 -14.5 
v 6 1 -12.5 
v 6 0 -12.5 
v -6 0 -12.5 
v -6 1 -12.5 
v -6 0 -14.5 
v -6 0 -14.5 
v 6 0 -14.5 
v -6 0 -12.5 
v 6 0 -12.5 
v -6 0 -14.5 
v -6 1 -12.5 
v 6 0 -14.5 
v 6 1 -12.5 
v -6 -1 -8.5 
v -6 0 -6.5 
v -6 0 -8.5 
v -6 0 -8.5 
v -6 0 -6.5 
v -6 1 -6.5 
v -6 1 -6.5 
v -6 0 -6.5 
v -6 1 -5.5 
v -6 0 -5.5 
v -6 1 -5.5 
v -6 0 -5.5 
v -6 0 -3.5 
v -6 1 5.5 
v -6 0 3.5 
v -6 0 5.5 
v -6 1 6.5 
v -6 1 5.5 
v -6 0 6.5 
v -6 0 5.5 
v 6 0 14.5 
v 6 0 12.5 
v 6 1 12.5 
v 6 0 14.5 
v 6 1 12.5 
v -6 0 14.5 
v -6 1 12.5 
v -6 1 12.5 
v -6 0 12.5 
v -6 0 14.5 
v -6 1 12.5 
v -6 1 11.5 
v -6 0 12.5 
v -6 0 11.5 
v -6 0 14.5 
v -6 0 12.5 
v 6 0 14.5 
v 6 0 12.5 
v -6 0 12.5 
v -6 0 11.5 
v 6 0 12.5 
v 6 0 11.5 
v 6 0 11.5 
v -6 0 11.5 
v 6 -1 9.5 
v -6 -1 9.5 
v 6 0 9.5 
v 6 0 11.5 
v 6 -1 9.5 
v 6 0 12.5 
v 6 0 11.5 
v 6 1 12.5 
v 6 1 11.5 
v 6 1 11.5 
v 6 0 11.5 
v 6 0 9.5 
v -6 1 12.5 
v 6 1 12.5 
v -6 1 11.5 
v 6 1 11.5 
v -6 0 9.5 
v -6 0 11.5 
v -6 1 11.5 
v -6 1 11.5 
v 6 1 11.5 
v -6 0 9.5 
v 6 0 9.5 
v 6 0 8.5 
v -6 0 8.5 
v 6 0 9.5 
v -6 0 9.5 
v -6 -1 9.5 
v -6 0 11.5 
v -6 0 9.5 
v -6 -1 8.5 
v -6 -1 9.5 
v -6 0 8.5 
v -6 0 9.5 
v -6 0 6.5 
v -6 0 8.5 
v -6 1 6.5 
v -6 0 6.5 
v -6 -1 8.5 
v -6 0 8.5 
v 6 -1 9.5 
v -6 -1 9.5 
v 6 -1 8.5 
v -6 -1 8.5 
v 6 -1 8.5 
v -6 -1 8.5 
v 6 0 6.5 
v -6 0 6.5 
v 6 -1 8.5 
v 6 0 8.5 
v 6 -1 9.5 
v 6 0 9.5 
v 6 0 8.5 
v 6 -1 8.5 
v 6 0 6.5 
v 6 1 6.5 
v -6 1 6.5 
v 6 0 8.5 
v -6 0 8.5 
v 6 0 8.5 
v 6 0 6.5 
v 6 1 6.5 
v -6 1 6.5 
v 6 1 6.5 
v -6 1 5.5 
v 6 1 5.5 
v -6 0 6.5 
v -6 0 5.5 
v 6 0 6.5 
v 6 0 5.5 
v 6 0 5.5 
v 6 1 5.5 
v 6 0 6.5 
v 6 1 6.5 
v 6 0 5.5 
v 6 0 3.5 
v 6 1 5.5 
v -6 0 5.5 
v -6 -1 3.5 
v 6 0 5.5 
v 6 -1 3.5 
v 6 -1 3.5 
v 6 0 3.5 
v 6 0 5.5 
v 6 0 3.5 
v 6 -1 3.5 
v 6 0 2.5 
v 6 -1 2.5 
v -6 0 3.5 
v -6 1 5.5 
v 6 0 3.5 
v 6 1 5.5 
v -6 0 2.5 
v 6 0 2.5 
v -6 1 0.5 
v 6 1 0.5 
v -6 0 2.5 
v -6 0 3.5 
v 6 0 2.5 
v 6 0 3.5 
v -6 0 3.5 
v -6 -1 3.5 
v -6 0 5.5 
v -6 -1 3.5 
v -6 0 3.5 
v -6 -1 2.5 
v -6 0 2.5 
v -6 1 0.5 
v -6 0 0.5 
v -6 0 2.5 
v -6 0 0.5 
v -6 -1 2.5 
v -6 0 2.5 
v -6 -1 3.5 
v -6 -1 2.5 
v 6 -1 3.5 
v 6 -1 2.5 
v 6 0 0.5 
v 6 0 2.5 
v 6 -1 2.5 
v 6 -1 2.5 
v -6 -1 2.5 
v 6 0 0.5 
v -6 0 0.5 
v -6 1 0.5 
v -6 1 -0.5 
v -6 0 0.5 
v -6 0 -0.5 
v -6 0 -0.5 
v 6 0 -0.5 
v -6 0 0.5 
v 6 0 0.5 
v 6 1 0.5 
v 6 0 2.5 
v 6 0 0.5 
v 6 0 -0.5 
v 6 -1 -2.5 
v 6 0 -2.5 
v 6 1 -0.5 
v 6 1 0.5 
v 6 0 -0.5 
v 6 0 0.5 
v 6 1 -0.5 
v 6 0 -0.5 
v 6 0 -2.5 
v 6 1 0.5 
v 6 1 -0.5 
v -6 1 0.5 
v -6 1 -0.5 
v -6 0 -2.5 
v -6 0 -0.5 
v -6 1 -0.5 
v -6 1 -0.5 
v 6 1 -0.5 
v -6 0 -2.5 
v 6 0 -2.5 
v 6 0 -2.5 
v 6 0 -3.5 
v -6 0 -2.5 
v -6 0 -3.5 
v -6 0 -2.5 
v -6 -1 -2.5 
v -6 0 -0.5 
v -6 0 -2.5 
v -6 0 -3.5 
v -6 -1 -2.5 
v -6 -1 -3.5 
v 6 -1 -2.5 
v 6 0 -0.5 
v -6 -1 -2.5 
v -6 0 -0.5 
v 6 -1 -2.5 
v -6 -1 -2.5 
v 6 -1 -3.5 
v -6 -1 -3.5 
v -6 0 -5.5 
v -6 -1 -3.5 
v -6 0 -3.5 
v -6 0 -5.5 
v 6 0 -5.5 
v -6 -1 -3.5 
v 6 -1 -3.5 
v 6 -1 -3.5 
v 6 0 -3.5 
v 6 -1 -2.5 
v 6 0 -2.5 
v 6 0 -3.5 
v 6 -1 -3.5 
v 6 0 -5.5 
v 6 1 -5.5 
v -6 1 -5.5 
v 6 0 -3.5 
v -6 0 -3.5 
v 6 1 -5.5 
v 6 0 -3.5 
v 6 0 -5.5 
v -6 1 -6.5 
v -6 1 -5.5 
v 6 1 -6.5 
v 6 1 -5.5 
v -6 0 -6.5 
v 6 0 -6.5 
v -6 0 -5.5 
v 6 0 -5.5 
v 6 0 -6.5 
v 6 1 -6.5 
v 6 0 -5.5 
v 6 1 -5.5 
v -6 1 -6.5 
v 6 1 -6.5 
v -6 0 -8.5 
v 6 0 -8.5 
v 6 1 -6.5 
v 6 0 -6.5 
v 6 0 -8.5 
v 6 -1 -8.5 
v 6 0 -6.5 
v -6 -1 -8.5 
v -6 0 -6.5 
v 6 -1 -8.5 
v 6 0 -8.5 
v 6 0 -6.5 
v 6 -1 -9.5 
v 6 -1 -8.5 
v -6 -1 -9.5 
v -6 -1 -8.5 
v 6 1 -11.5 
v 6 0 -11.5 
v 6 1 -12.5 
v 6 0 -12.5 
v 6 -1 -9.5 
v 6 0 -11.5 
v 6 0 -9.5 
v 6 0 -11.5 
v -6 0 -11.5 
v 6 0 -12.5 
v -6 0 -12.5 
v -6 1 -12.5 
v -6 0 -12.5 
v -6 1 -11.5 
v -6 0 -11.5 
v 6 1 -12.5 
v -6 1 -12.5 
v 6 1 -11.5 
v -6 1 -11.5 
v -6 0 -9.5 
v -6 0 -8.5 
v 6 0 -9.5 
v 6 0 -8.5 
v -6 -1 -9.5 
v -6 0 -9.5 
v -6 0 -11.5 
v -6 0 -11.5 
v 6 0 -11.5 
v -6 -1 -9.5 
v 6 -1 -9.5 
v 6 1 -11.5 
v 6 0 -9.5 
v 6 0 -11.5 
v -6 0 -11.5 
v -6 0 -9.5 
v -6 1 -11.5 
v 6 0 -9.5 
v 6 1 -11.5 
v -6 0 -9.5 
v -6 1 -11.5 
v -6 -1 -9.5 
v -6 -1 -8.5 
v -6 0 -9.5 
v -6 0 -8.5 
v 6 0 -8.5 
v 6 -1 -8.5 
v 6 0 -9.5 
v 6 -1 -9.5 

vn 1 0 0 
vn 1 0 0 
vn 1 0 0 
vn -1 0 0 
vn -1 0 0 
vn -1 0 0 
vn 0 -1 0 
vn 0 -1 0 
vn 0 -1 0 
vn 0 -1 0 
vn 0 0.708661 -0.708661 
vn 0 0.708661 -0.708661 
vn 0 0.708661 -0.708661 
vn 0 0.708661 -0.708661 
vn -1 0 0 
vn -1 0 0 
vn -1 0 0 
vn -1 0 0 
vn -1 0 0 
vn -1 0 0 
vn -1 0 0 
vn -1 0 0 
vn -1 0 0 
vn -1 0 0 
vn -1 0 0 
vn -1 0 0 
vn -1 0 0 
vn -1 0 0 
vn -1 0 0 
vn -1 0 0 
vn -1 0 0 
vn -1 0 0 
vn -1 0 0 
vn -1 0 0 
vn 1 0 0 
vn 1 0 0 
vn 1 0 0 
vn 0 0.708661 0.708661 
vn 0 0.708661 0.708661 
vn 0 0.708661 0.708661 
vn 0 0.708661 0.708661 
vn -1 0 0 
vn -1 0 0 
vn -1 0 0 
vn -1 0 0 
vn -1 0 0 
vn -1 0 0 
vn -1 0 0 
vn 0 -1 0 
vn 0 -1 0 
vn 0 -1 0 
vn 0 -1 0 
vn 0 -1 0 
vn 0 -1 0 
vn 0 -1 0 
vn 0 -1 0 
vn 0 -0.708661 0.708661 
vn 0 -0.708661 0.708661 
vn 0 -0.708661 0.708661 
vn 0 -0.708661 0.708661 
vn 1 0 0 
vn 1 0 0 
vn 1 0 0 
vn 1 0 0 
vn 1 0 0 
vn 1 0 0 
vn 1 0 0 
vn 1 0 0 
vn 1 0 0 
vn 1 0 0 
vn 0 1 0 
vn 0 1 0 
vn 0 1 0 
vn 0 1 0 
vn -1 0 0 
vn -1 0 0 
vn -1 0 0 
vn 0 0.708661 -0.708661 
vn 0 0.708661 -0.708661 
vn 0 0.708661 -0.708661 
vn 0 0.708661 -0.708661 
vn 0 1 0 
vn 0 1 0 
vn 0 1 0 
vn 0 1 0 
vn -1 0 0 
vn -1 0 0 
vn -1 0 0 
vn -1 0 0 
vn -1 0 0 
vn -1 0 0 
vn -1 0 0 
vn -1 0 0 
vn -1 0 0 
vn -1 0 0 
vn -1 0 0 
vn -1 0 0 
vn -1 0 0 
vn 0 -1 0 
vn 0 -1 0 
vn 0 -1 0 
vn 0 -1 0 
vn 0 -0.708661 -0.708661 
vn 0 -0.708661 -0.708661 
vn 0 -0.708661 -0.708661 
vn 0 -0.708661 -0.708661 
vn 1 0 0 
vn 1 0 0 
vn 1 0 0 
vn 1 0 0 
vn 1 0 0 
vn 1 0 0 
vn 1 0 0 
vn 0 0.708661 0.708661 
vn 0 0.708661 0.708661 
vn 0 0.708661 0.708661 
vn 0 0.708661 0.708661 
vn 1 0 0 
vn 1 0 0 
vn 1 0 0 
vn 0 1 0 
vn 0 1 0 
vn 0 1 0 
vn 0 1 0 
vn 0 -1 0 
vn 0 -1 0 
vn 0 -1 0 
vn 0 -1 0 
vn 1 0 0 
vn 1 0 0 
vn 1 0 0 
vn 1 0 0 
vn 1 0 0 
vn 1 0 0 
vn 1 0 0 
vn 0 -0.708661 0.708661 
vn 0 -0.708661 0.708661 
vn 0 -0.708661 0.708661 
vn 0 -0.708661 0.708661 
vn 1 0 0 
vn 1 0 0 
vn 1 0 0 
vn 1 0 0 
vn 1 0 0 
vn 1 0 0 
vn 1 0 0 
vn 0 0.708661 -0.708661 
vn 0 0.708661 -0.708661 
vn 0 0.708661 -0.708661 
vn 0 0.708661 -0.708661 
vn 0 0.708661 0.708661 
vn 0 0.708661 0.708661 
vn 0 0.708661 0.708661 
vn 0 0.708661 0.708661 
vn 0 1 0 
vn 0 1 0 
vn 0 1 0 
vn 0 1 0 
vn -1 0 0 
vn -1 0 0 
vn -1 0 0 
vn -1 0 0 
vn -1 0 0 
vn -1 0 0 
vn -1 0 0 
vn -1 0 0 
vn -1 0 0 
vn -1 0 0 
vn -1 0 0 
vn -1 0 0 
vn -1 0 0 
vn 0 -1 0 
vn 0 -1 0 
vn 0 -1 0 
vn 0 -1 0 
vn 1 0 0 
vn 1 0 0 
vn 1 0 0 
vn 0 -0.708661 -0.708661 
vn 0 -0.708661 -0.708661 
vn 0 -0.708661 -0.708661 
vn 0 -0.708661 -0.708661 
vn -1 0 0 
vn -1 0 0 
vn -1 0 0 
vn -1 0 0 
vn 0 -1 0 
vn 0 -1 0 
vn 0 -1 0 
vn 0 -1 0 
vn 1 0 0 
vn 1 0 0 
vn 1 0 0 
vn 1 0 0 
vn 1 0 0 
vn 1 0 0 
vn 1 0 0 
vn 1 0 0 
vn 1 0 0 
vn 1 0 0 
vn 1 0 0 
vn 1 0 0 
vn 1 0 0 
vn 0 1 0 
vn 0 1 0 
vn 0 1 0 
vn 0 1 0 
vn -1 0 0 
vn -1 0 0 
vn -1 0 0 
vn 0 0.708661 -0.708661 
vn 0 0.708661 -0.708661 
vn 0 0.708661 -0.708661 
vn 0 0.708661 -0.708661 
vn 0 1 0 
vn 0 1 0 
vn 0 1 0 
vn 0 1 0 
vn -1 0 0 
vn -1 0 0 
vn -1 0 0 
vn -1 0 0 
vn -1 0 0 
vn -1 0 0 
vn -1 0 0 
vn 0 -0.708661 0.708661 
vn 0 -0.708661 0.708661 
vn 0 -0.708661 0.708661 
vn 0 -0.708661 0.708661 
vn 0 -1 0 
vn 0 -1 0 
vn 0 -1 0 
vn 0 -1 0 
vn -1 0 0 
vn -1 0 0 
vn -1 0 0 
vn 0 -0.708661 -0.708661 
vn 0 -0.708661 -0.708661 
vn 0 -0.708661 -0.708661 
vn 0 -0.708661 -0.708661 
vn 1 0 0 
vn 1 0 0 
vn 1 0 0 
vn 1 0 0 
vn 1 0 0 
vn 1 0 0 
vn 1 0 0 
vn 0 0.708661 0.708661 
vn 0 0.708661 0.708661 
vn 0 0.708661 0.708661 
vn 0 0.708661 0.708661 
vn 1 0 0 
vn 1 0 0 
vn 1 0 0 
vn 0 1 0 
vn 0 1 0 
vn 0 1 0 
vn 0 1 0 
vn 0 -1 0 
vn 0 -1 0 
vn 0 -1 0 
vn 0 -1 0 
vn 1 0 0 
vn 1 0 0 
vn 1 0 0 
vn 1 0 0 
vn 0 0.708661 -0.708661 
vn 0 0.708661 -0.708661 
vn 0 0.708661 -0.708661 
vn 0 0.708661 -0.708661 
vn 1 0 0 
vn 1 0 0 
vn 1 0 0 
vn 0 -0.708661 0.708661 
vn 0 -0.708661 0.708661 
vn 0 -0.708661 0.708661 
vn 0 -0.708661 0.708661 
vn 1 0 0 
vn 1 0 0 
vn 1 0 0 
vn 0 -1 0 
vn 0 -1 0 
vn 0 -1 0 
vn 0 -1 0 
vn 1 0 0 
vn 1 0 0 
vn 1 0 0 
vn 1 0 0 
vn 1 0 0 
vn 1 0 0 
vn 1 0 0 
vn 0 -1 0 
vn 0 -1 0 
vn 0 -1 0 
vn 0 -1 0 
vn -1 0 0 
vn -1 0 0 
vn -1 0 0 
vn -1 0 0 
vn 0 1 0 
vn 0 1 0 
vn 0 1 0 
vn 0 1 0 
vn 0 1 0 
vn 0 1 0 
vn 0 1 0 
vn 0 1 0 
vn -1 0 0 
vn -1 0 0 
vn -1 0 0 
vn 0 -0.708661 -0.708661 
vn 0 -0.708661 -0.708661 
vn 0 -0.708661 -0.708661 
vn 0 -0.708661 -0.708661 
vn 1 0 0 
vn 1 0 0 
vn 1 0 0 
vn -1 0 0 
vn -1 0 0 
vn -1 0 0 
vn 0 0.708661 0.708661 
vn 0 0.708661 0.708661 
vn 0 0.708661 0.708661 
vn 0 0.708661 0.708661 
vn -1 0 0 
vn -1 0 0 
vn -1 0 0 
vn -1 0 0 
vn 1 0 0 
vn 1 0 0 
vn 1 0 0 
vn 1 0 0 

vt -10.7602 7.56614 
vt -11.0102 7.69114 
vt -11.0102 7.56614 
vt -14.1352 7.56614 
vt -14.1352 7.69114 
vt -14.3852 7.56614 
vt -13.3227 5.75364 
vt -11.8227 5.75364 
vt -13.3227 6.00364 
vt -11.8227 6.00364 
vt -11.8227 7.56614 
vt -11.8227 7.69114 
vt -13.3227 7.56614 
vt -13.3227 7.69114 
vt -13.6352 7.44114 
vt -13.3852 7.56614 
vt -13.6352 7.56614 
vt -13.6352 7.56614 
vt -13.3852 7.56614 
vt -13.3852 7.69114 
vt -13.3852 7.69114 
vt -13.3852 7.56614 
vt -13.2602 7.69114 
vt -13.2602 7.56614 
vt -13.2602 7.69114 
vt -13.2602 7.56614 
vt -13.0102 7.56614 
vt -11.8852 7.69114 
vt -12.1352 7.56614 
vt -11.8852 7.56614 
vt -11.7602 7.69114 
vt -11.8852 7.69114 
vt -11.7602 7.56614 
vt -11.8852 7.56614 
vt -14.3852 7.56614 
vt -14.1352 7.56614 
vt -14.1352 7.69114 
vt -11.8227 7.56614 
vt -11.8227 7.69114 
vt -13.3227 7.56614 
vt -13.3227 7.69114 
vt -11.0102 7.69114 
vt -11.0102 7.56614 
vt -10.7602 7.56614 
vt -11.0102 7.69114 
vt -11.1352 7.69114 
vt -11.0102 7.56614 
vt -11.1352 7.56614 
vt -13.3227 9.37864 
vt -13.3227 9.12864 
vt -11.8227 9.37864 
vt -11.8227 9.12864 
vt -13.3227 9.12864 
vt -13.3227 9.00364 
vt -11.8227 9.12864 
vt -11.8227 9.00364 
vt -11.8227 7.56614 
vt -13.3227 7.56614 
vt -11.8227 7.44114 
vt -13.3227 7.44114 
vt -13.7602 7.56614 
vt -14.0102 7.56614 
vt -13.7602 7.44114 
vt -14.1352 7.56614 
vt -14.0102 7.56614 
vt -14.1352 7.69114 
vt -14.0102 7.69114 
vt -14.0102 7.69114 
vt -14.0102 7.56614 
vt -13.7602 7.56614 
vt -11.8227 9.12864 
vt -13.3227 9.12864 
vt -11.8227 9.00364 
vt -13.3227 9.00364 
vt -11.3852 7.56614 
vt -11.1352 7.56614 
vt -11.1352 7.69114 
vt -11.8227 7.69114 
vt -13.3227 7.69114 
vt -11.8227 7.56614 
vt -13.3227 7.56614 
vt -13.3227 8.62864 
vt -11.8227 8.62864 
vt -13.3227 8.75364 
vt -11.8227 8.75364 
vt -11.3852 7.44114 
vt -11.1352 7.56614 
vt -11.3852 7.56614 
vt -11.5102 7.44114 
vt -11.3852 7.44114 
vt -11.5102 7.56614 
vt -11.3852 7.56614 
vt -11.7602 7.56614 
vt -11.5102 7.56614 
vt -11.7602 7.69114 
vt -11.7602 7.56614 
vt -11.5102 7.44114 
vt -11.5102 7.56614 
vt -11.8227 8.75364 
vt -13.3227 8.75364 
vt -11.8227 8.62864 
vt -13.3227 8.62864 
vt -13.3227 7.44114 
vt -11.8227 7.44114 
vt -13.3227 7.56614 
vt -11.8227 7.56614 
vt -13.6352 7.44114 
vt -13.6352 7.56614 
vt -13.7602 7.44114 
vt -13.7602 7.56614 
vt -13.6352 7.56614 
vt -13.6352 7.44114 
vt -13.3852 7.56614 
vt -11.8227 7.69114 
vt -13.3227 7.69114 
vt -11.8227 7.56614 
vt -13.3227 7.56614 
vt -13.6352 7.56614 
vt -13.3852 7.56614 
vt -13.3852 7.69114 
vt -11.8227 8.37864 
vt -13.3227 8.37864 
vt -11.8227 8.25364 
vt -13.3227 8.25364 
vt -13.3227 8.37864 
vt -13.3227 8.25364 
vt -11.8227 8.37864 
vt -11.8227 8.25364 
vt -13.2602 7.56614 
vt -13.2602 7.69114 
vt -13.3852 7.56614 
vt -13.3852 7.69114 
vt -13.2602 7.56614 
vt -13.0102 7.56614 
vt -13.2602 7.69114 
vt -13.3227 7.56614 
vt -13.3227 7.44114 
vt -11.8227 7.56614 
vt -11.8227 7.44114 
vt -13.0102 7.44114 
vt -13.0102 7.56614 
vt -13.2602 7.56614 
vt -13.0102 7.56614 
vt -13.0102 7.44114 
vt -12.8852 7.56614 
vt -12.8852 7.44114 
vt -11.8227 7.56614 
vt -11.8227 7.69114 
vt -13.3227 7.56614 
vt -13.3227 7.69114 
vt -13.3227 7.56614 
vt -11.8227 7.56614 
vt -13.3227 7.69114 
vt -11.8227 7.69114 
vt -11.8227 7.87864 
vt -11.8227 8.00364 
vt -13.3227 7.87864 
vt -13.3227 8.00364 
vt -12.1352 7.56614 
vt -12.1352 7.44114 
vt -11.8852 7.56614 
vt -12.1352 7.44114 
vt -12.1352 7.56614 
vt -12.2602 7.44114 
vt -12.2602 7.56614 
vt -12.5102 7.69114 
vt -12.5102 7.56614 
vt -12.2602 7.56614 
vt -12.5102 7.56614 
vt -12.2602 7.44114 
vt -12.2602 7.56614 
vt -13.3227 8.00364 
vt -13.3227 7.87864 
vt -11.8227 8.00364 
vt -11.8227 7.87864 
vt -12.6352 7.56614 
vt -12.8852 7.56614 
vt -12.8852 7.44114 
vt -13.3227 7.44114 
vt -11.8227 7.44114 
vt -13.3227 7.56614 
vt -11.8227 7.56614 
vt -12.5102 7.69114 
vt -12.6352 7.69114 
vt -12.5102 7.56614 
vt -12.6352 7.56614 
vt -13.3227 7.50364 
vt -11.8227 7.50364 
vt -13.3227 7.62864 
vt -11.8227 7.62864 
vt -12.6352 7.69114 
vt -12.8852 7.56614 
vt -12.6352 7.56614 
vt -12.5102 7.56614 
vt -12.2602 7.44114 
vt -12.2602 7.56614 
vt -12.5102 7.69114 
vt -12.6352 7.69114 
vt -12.5102 7.56614 
vt -12.6352 7.56614 
vt -12.5102 7.69114 
vt -12.5102 7.56614 
vt -12.2602 7.56614 
vt -13.3227 7.62864 
vt -13.3227 7.50364 
vt -11.8227 7.62864 
vt -11.8227 7.50364 
vt -12.8852 7.56614 
vt -12.6352 7.56614 
vt -12.6352 7.69114 
vt -11.8227 7.69114 
vt -13.3227 7.69114 
vt -11.8227 7.56614 
vt -13.3227 7.56614 
vt -13.3227 7.25364 
vt -13.3227 7.12864 
vt -11.8227 7.25364 
vt -11.8227 7.12864 
vt -12.8852 7.56614 
vt -12.8852 7.44114 
vt -12.6352 7.56614 
vt -12.8852 7.56614 
vt -13.0102 7.56614 
vt -12.8852 7.44114 
vt -13.0102 7.44114 
vt -11.8227 7.44114 
vt -11.8227 7.56614 
vt -13.3227 7.44114 
vt -13.3227 7.56614 
vt -11.8227 7.25364 
vt -13.3227 7.25364 
vt -11.8227 7.12864 
vt -13.3227 7.12864 
vt -13.2602 7.56614 
vt -13.0102 7.44114 
vt -13.0102 7.56614 
vt -11.8227 7.56614 
vt -13.3227 7.56614 
vt -11.8227 7.44114 
vt -13.3227 7.44114 
vt -12.1352 7.44114 
vt -12.1352 7.56614 
vt -12.2602 7.44114 
vt -12.2602 7.56614 
vt -12.1352 7.56614 
vt -12.1352 7.44114 
vt -11.8852 7.56614 
vt -11.8227 7.69114 
vt -13.3227 7.69114 
vt -11.8227 7.56614 
vt -13.3227 7.56614 
vt -11.8852 7.69114 
vt -12.1352 7.56614 
vt -11.8852 7.56614 
vt -11.8227 6.75364 
vt -11.8227 6.87864 
vt -13.3227 6.75364 
vt -13.3227 6.87864 
vt -13.3227 6.75364 
vt -11.8227 6.75364 
vt -13.3227 6.87864 
vt -11.8227 6.87864 
vt -11.7602 7.56614 
vt -11.7602 7.69114 
vt -11.8852 7.56614 
vt -11.8852 7.69114 
vt -11.8227 7.69114 
vt -13.3227 7.69114 
vt -11.8227 7.56614 
vt -13.3227 7.56614 
vt -11.7602 7.69114 
vt -11.7602 7.56614 
vt -11.5102 7.56614 
vt -11.8227 7.44114 
vt -11.8227 7.56614 
vt -13.3227 7.44114 
vt -13.3227 7.56614 
vt -11.5102 7.44114 
vt -11.5102 7.56614 
vt -11.7602 7.56614 
vt -11.8227 6.37864 
vt -11.8227 6.50364 
vt -13.3227 6.37864 
vt -13.3227 6.50364 
vt -11.1352 7.69114 
vt -11.1352 7.56614 
vt -11.0102 7.69114 
vt -11.0102 7.56614 
vt -11.3852 7.44114 
vt -11.1352 7.56614 
vt -11.3852 7.56614 
vt -11.8227 6.12864 
vt -13.3227 6.12864 
vt -11.8227 6.00364 
vt -13.3227 6.00364 
vt -14.1352 7.69114 
vt -14.1352 7.56614 
vt -14.0102 7.69114 
vt -14.0102 7.56614 
vt -13.3227 6.00364 
vt -11.8227 6.00364 
vt -13.3227 6.12864 
vt -11.8227 6.12864 
vt -11.8227 6.37864 
vt -11.8227 6.50364 
vt -13.3227 6.37864 
vt -13.3227 6.50364 
vt -13.7602 7.44114 
vt -13.7602 7.56614 
vt -14.0102 7.56614 
vt -11.8227 7.56614 
vt -13.3227 7.56614 
vt -11.8227 7.44114 
vt -13.3227 7.44114 
vt -11.1352 7.69114 
vt -11.3852 7.56614 
vt -11.1352 7.56614 
vt -14.0102 7.56614 
vt -13.7602 7.56614 
vt -14.0102 7.69114 
vt -11.8227 7.56614 
vt -11.8227 7.69114 
vt -13.3227 7.56614 
vt -13.3227 7.69114 
vt -13.7602 7.44114 
vt -13.6352 7.44114 
vt -13.7602 7.56614 
vt -13.6352 7.56614 
vt -11.5102 7.56614 
vt -11.5102 7.44114 
vt -11.3852 7.56614 
vt -11.3852 7.44114 

usemtl Plaqueonduler1Mtl

f 1/1/1 2/2/2 3/3/3 
f 4/4/4 5/5/5 6/6/6 
f 7/7/7 8/8/8 9/9/9 
f 8/8/8 10/10/10 9/9/9 
f 11/11/11 12/12/12 13/13/13 
f 12/12/12 14/14/14 13/13/13 
f 15/15/15 16/16/16 17/17/17 
f 18/18/18 19/19/19 20/20/20 
f 21/21/21 22/22/22 23/23/23 
f 22/22/22 24/24/24 23/23/23 
f 25/25/25 26/26/26 27/27/27 
f 28/28/28 29/29/29 30/30/30 
f 31/31/31 32/32/32 33/33/33 
f 32/32/32 34/34/34 33/33/33 
f 35/35/35 36/36/36 37/37/37 
f 38/38/38 39/39/39 40/40/40 
f 39/39/39 41/41/41 40/40/40 
f 42/42/42 43/43/43 44/44/44 
f 45/45/45 46/46/46 47/47/47 
f 46/46/46 48/48/48 47/47/47 
f 49/49/49 50/50/50 51/51/51 
f 50/50/50 52/52/52 51/51/51 
f 53/53/53 54/54/54 55/55/55 
f 54/54/54 56/56/56 55/55/55 
f 57/57/57 58/58/58 59/59/59 
f 58/58/58 60/60/60 59/59/59 
f 61/61/61 62/62/62 63/63/63 
f 64/64/64 65/65/65 66/66/66 
f 65/65/65 67/67/67 66/66/66 
f 68/68/68 69/69/69 70/70/70 
f 71/71/71 72/72/72 73/73/73 
f 72/72/72 74/74/74 73/73/73 
f 75/75/75 76/76/76 77/77/77 
f 78/78/78 79/79/79 80/80/80 
f 79/79/79 81/81/81 80/80/80 
f 82/82/82 83/83/83 84/84/84 
f 83/83/83 85/85/85 84/84/84 
f 86/86/86 87/87/87 88/88/88 
f 89/89/89 90/90/90 91/91/91 
f 90/90/90 92/92/92 91/91/91 
f 93/93/93 94/94/94 95/95/95 
f 96/96/96 97/97/97 98/98/98 
f 99/99/99 100/100/100 101/101/101 
f 100/100/100 102/102/102 101/101/101 
f 103/103/103 104/104/104 105/105/105 
f 104/104/104 106/106/106 105/105/105 
f 107/107/107 108/108/108 109/109/109 
f 108/108/108 110/110/110 109/109/109 
f 111/111/111 112/112/112 113/113/113 
f 114/114/114 115/115/115 116/116/116 
f 115/115/115 117/117/117 116/116/116 
f 118/118/118 119/119/119 120/120/120 
f 121/121/121 122/122/122 123/123/123 
f 122/122/122 124/124/124 123/123/123 
f 125/125/125 126/126/126 127/127/127 
f 126/126/126 128/128/128 127/127/127 
f 129/129/129 130/130/130 131/131/131 
f 130/130/130 132/132/132 131/131/131 
f 133/133/133 134/134/134 135/135/135 
f 136/136/136 137/137/137 138/138/138 
f 137/137/137 139/139/139 138/138/138 
f 140/140/140 141/141/141 142/142/142 
f 143/143/143 144/144/144 145/145/145 
f 144/144/144 146/146/146 145/145/145 
f 147/147/147 148/148/148 149/149/149 
f 148/148/148 150/150/150 149/149/149 
f 151/151/151 152/152/152 153/153/153 
f 152/152/152 154/154/154 153/153/153 
f 155/155/155 156/156/156 157/157/157 
f 156/156/156 158/158/158 157/157/157 
f 159/159/159 160/160/160 161/161/161 
f 162/162/162 163/163/163 164/164/164 
f 163/163/163 165/165/165 164/164/164 
f 166/166/166 167/167/167 168/168/168 
f 169/169/169 170/170/170 171/171/171 
f 172/172/172 173/173/173 174/174/174 
f 173/173/173 175/175/175 174/174/174 
f 176/176/176 177/177/177 178/178/178 
f 179/179/179 180/180/180 181/181/181 
f 180/180/180 182/182/182 181/181/181 
f 183/183/183 184/184/184 185/185/185 
f 184/184/184 186/186/186 185/185/185 
f 187/187/187 188/188/188 189/189/189 
f 188/188/188 190/190/190 189/189/189 
f 191/191/191 192/192/192 193/193/193 
f 194/194/194 195/195/195 196/196/196 
f 197/197/197 198/198/198 199/199/199 
f 198/198/198 200/200/200 199/199/199 
f 201/201/201 202/202/202 203/203/203 
f 204/204/204 205/205/205 206/206/206 
f 205/205/205 207/207/207 206/206/206 
f 208/208/208 209/209/209 210/210/210 
f 211/211/211 212/212/212 213/213/213 
f 212/212/212 214/214/214 213/213/213 
f 215/215/215 216/216/216 217/217/217 
f 216/216/216 218/218/218 217/217/217 
f 219/219/219 220/220/220 221/221/221 
f 222/222/222 223/223/223 224/224/224 
f 223/223/223 225/225/225 224/224/224 
f 226/226/226 227/227/227 228/228/228 
f 227/227/227 229/229/229 228/228/228 
f 230/230/230 231/231/231 232/232/232 
f 231/231/231 233/233/233 232/232/232 
f 234/234/234 235/235/235 236/236/236 
f 237/237/237 238/238/238 239/239/239 
f 238/238/238 240/240/240 239/239/239 
f 241/241/241 242/242/242 243/243/243 
f 242/242/242 244/244/244 243/243/243 
f 245/245/245 246/246/246 247/247/247 
f 248/248/248 249/249/249 250/250/250 
f 249/249/249 251/251/251 250/250/250 
f 252/252/252 253/253/253 254/254/254 
f 255/255/255 256/256/256 257/257/257 
f 256/256/256 258/258/258 257/257/257 
f 259/259/259 260/260/260 261/261/261 
f 260/260/260 262/262/262 261/261/261 
f 263/263/263 264/264/264 265/265/265 
f 264/264/264 266/266/266 265/265/265 
f 267/267/267 268/268/268 269/269/269 
f 268/268/268 270/270/270 269/269/269 
f 271/271/271 272/272/272 273/273/273 
f 274/274/274 275/275/275 276/276/276 
f 275/275/275 277/277/277 276/276/276 
f 278/278/278 279/279/279 280/280/280 
f 281/281/281 282/282/282 283/283/283 
f 282/282/282 284/284/284 283/283/283 
f 285/285/285 286/286/286 287/287/287 
f 286/286/286 288/288/288 287/287/287 
f 289/289/289 290/290/290 291/291/291 
f 292/292/292 293/293/293 294/294/294 
f 293/293/293 295/295/295 294/294/294 
f 296/296/296 297/297/297 298/298/298 
f 297/297/297 299/299/299 298/298/298 
f 300/300/300 301/301/301 302/302/302 
f 301/301/301 303/303/303 302/302/302 
f 304/304/304 305/305/305 306/306/306 
f 305/305/305 307/307/307 306/306/306 
f 308/308/308 309/309/309 310/310/310 
f 311/311/311 312/312/312 313/313/313 
f 312/312/312 314/314/314 313/313/313 
f 315/315/315 316/316/316 317/317/317 
f 318/318/318 319/319/319 320/320/320 
f 321/321/321 322/322/322 323/323/323 
f 322/322/322 324/324/324 323/323/323 
f 325/325/325 326/326/326 327/327/327 
f 326/326/326 328/328/328 327/327/327 
f 329/329/329 330/330/330 331/331/331 
f 330/330/330 332/332/332 331/331/331 

