# This file is brought to you by Roblox Corporation
# Generated by Roblox Studio

mtllib Triangle.mtl

g Triangle1

v 15.0003 0.999969 -2.40001 
v 15.0003 0.999969 -2.40001 
v 15.0003 0.999969 -2.40001 
v 15.0003 0.999969 -2.40001 
v 15.0003 0.999969 -2.40002 
v 15.0003 0.999969 -2.40001 
v 15.0003 0 -2.40001 
v 15.0003 0 -2.40001 
v 15.0003 0.999969 -2.40001 
v 15.0003 0.999969 -2.40001 
v 15.0003 0.999969 -2.40001 
v 15.0003 0.999969 -2.40002 
v 15.0003 0 -2.40001 
v 15.0003 0 -2.40002 
v 15.0003 0 -2.40001 
v 15.0003 0 -2.40002 
v 15.0003 0 -2.40001 
v 15.0003 0 -2.40001 
v 15.0003 0 -2.40001 
v 15.0003 0 -2.40001 
v 15.0003 0 -2.40001 
v 15.6483 0 -1.10394 
v 15.0003 0.999969 -2.40002 
v 15.0003 0.999969 -2.40001 
v 15.0003 0 -2.40002 
v 15.0003 0 -2.40001 
v 15.0003 0.999969 -2.40001 
v 15.0003 0.999969 -1.10002 
v 18.0003 0.999969 3.59998 
v 17.0003 0.999969 3.09998 
v 15.0003 0.999969 3.59998 
v 18.0003 0 3.59998 
v 15.6483 0 -1.10394 
v 18.0003 0.999969 3.59998 
v 15.0003 0 -2.40001 
v 15.0003 0.999969 -2.40001 
v 18.0003 0.999969 3.59998 
v 15.0003 0.999969 3.59998 
v 18.0003 0 3.59998 
v 17.0003 0 3.09998 
v 18.0003 0 3.59998 
v 15.0003 0 3.09998 
v 15.0003 0.999969 3.59998 
v 15.0003 0 3.59998 
v 15.0003 0 3.59998 
v 15.0003 0.999969 3.59998 
v 12.0003 0 3.59998 
v 12.0003 0.999969 3.59998 
v 14.9964 0 -2.39217 
v 12.0003 0 3.59998 
v 12.0003 0.999969 3.59998 
v 15.0003 0 -2.40001 
v 15.0003 0 -2.40001 
v 15.0003 0.999969 -2.40001 
v 15.0003 0.999969 -2.40001 
v 15.0003 0 -2.40001 
v 15.0003 0.999969 -2.40001 
v 13.0003 0 3.09998 
v 13.0003 0.999969 3.09998 
v 14.9964 0 3.09998 
v 15.0003 0.999969 3.09998 
v 15.0003 0.999969 3.09998 
v 15.0003 0 3.09998 
v 15.0003 0 3.09998 
v 15.0003 0.999969 -1.10002 
v 15.0003 0.999969 -1.10001 
v 15.0003 0 -1.10002 
v 13.0003 0.999969 3.09998 
v 13.0003 0 3.09998 
v 15.0003 0 -1.10001 
v 13.0003 0.999969 3.09998 
v 15.0003 0.999969 -1.10001 
v 12.0003 0.999969 3.59998 
v 13.0003 0 3.09998 
v 12.0003 0 3.59998 
v 14.9964 0 -2.39217 
v 15.0003 0 3.09998 
v 15.0003 0.999969 3.09998 
v 15.0042 0.999969 3.09998 
v 15.0003 0.999969 3.09998 
v 15.0003 0.999969 3.59998 
v 15.0003 0.999969 3.09998 
v 15.0003 0 3.09998 
v 15.0003 0 3.59998 
v 14.9964 0 3.09998 
v 15.0003 0 3.59998 
v 15.0003 0.999969 3.59998 
v 15.0003 0.999969 3.09998 
v 15.0003 0 3.09998 
v 15.0042 0.999969 3.09998 
v 15.0003 0.999969 -1.10001 
v 15.0003 0 -1.10002 
v 15.0003 0 -1.10001 
v 15.0003 0 -2.40001 
v 15.0003 0 -1.10001 
v 15.0003 0 -1.10002 
v 17.0003 0 3.09998 
v 15.0003 0.999969 -1.10002 
v 17.0003 0.999969 3.09998 
v 17.0003 0 3.09998 
v 17.0003 0.999969 3.09998 
v 15.0003 0.999969 -2.40001 

vn 0 1 0 
vn 0 1 0 
vn 0 1 0 
vn 0 1 0 
vn 0 1 0 
vn 0 1 0 
vn 0.897638 0 -0.448819 
vn 0.897638 0 -0.448819 
vn 0.897638 0 -0.448819 
vn 0.897638 0 -0.448819 
vn -0.897638 0 -0.448819 
vn -0.897638 0 -0.448819 
vn -0.897638 0 -0.448819 
vn -0.897638 0 -0.448819 
vn 0 -1 0 
vn 0 -1 0 
vn 0 -1 0 
vn 0 -1 0 
vn 0 -1 0 
vn 0 -1 0 
vn 0 -1 0 
vn 0 -1 0 
vn 1 0 0 
vn 1 0 0 
vn 1 0 0 
vn 1 0 0 
vn 0 1 0 
vn 0 1 0 
vn 0 1 0 
vn 0 1 0 
vn 0 1 0 
vn 0.897638 0 -0.448819 
vn 0.897638 0 -0.448819 
vn 0.897638 0 -0.448819 
vn 0.897638 0 -0.448819 
vn 0.897638 0 -0.448819 
vn 0 0 1 
vn 0 0 1 
vn 0 0 1 
vn 0 -1 0 
vn 0 -1 0 
vn 0 -1 0 
vn 0 0 1 
vn 0 0 1 
vn 0 0 1 
vn 0 0 1 
vn 0 0 1 
vn 0 0 1 
vn -0.897638 0 -0.448819 
vn -0.897638 0 -0.448819 
vn -0.897638 0 -0.448819 
vn -1 0 0 
vn -1 0 0 
vn -1 0 0 
vn -1 0 0 
vn -0.897638 0 -0.448819 
vn -0.897638 0 -0.448819 
vn 0 0 -1 
vn 0 0 -1 
vn 0 0 -1 
vn 0 0 -1 
vn 0 0 -1 
vn 0 0 -1 
vn 0 0 -1 
vn 0.905512 0 0.433071 
vn 0.905512 0 0.433071 
vn 0.905512 0 0.433071 
vn 0.905512 0 0.433071 
vn 0.905512 0 0.433071 
vn 0.905512 0 0.433071 
vn 0 1 0 
vn 0 1 0 
vn 0 1 0 
vn 0 -1 0 
vn 0 -1 0 
vn 0 -1 0 
vn 0 0 -1 
vn 0 0 -1 
vn 0 0 -1 
vn 0 1 0 
vn 0 1 0 
vn 0 1 0 
vn 0 -1 0 
vn 0 -1 0 
vn 0 -1 0 
vn 0 -1 0 
vn 0 1 0 
vn 0 1 0 
vn 0 -1 0 
vn 0 1 0 
vn 0 1 0 
vn 0 -1 0 
vn 0 -1 0 
vn 0 -1 0 
vn 0 -1 0 
vn -0.905512 0 0.433071 
vn -0.905512 0 0.433071 
vn -0.905512 0 0.433071 
vn -0.905512 0 0.433071 
vn 0 0 -1 
vn 0 0 -1 
vn 0 1 0 

vt 0 -52.625 
vt 0 -52.625 
vt 0 -52.625 
vt 5.96046e-08 -52.625 
vt 5.96046e-08 -52.625 
vt 0 -52.625 
vt 0.0624981 -52.625 
vt 0.0624981 -52.625 
vt -0.0624981 -52.625 
vt -0.0624981 -52.625 
vt 0.0624981 -52.625 
vt 0.0624981 -52.625 
vt -0.0624981 -52.625 
vt -0.0624981 -52.625 
vt 0 -52.625 
vt -5.96046e-08 -52.625 
vt -5.96046e-08 -52.625 
vt 0 -52.625 
vt 0 -52.625 
vt 0 -52.625 
vt -5.96046e-08 -52.625 
vt -0.081005 -52.787 
vt -0.0624981 -52.625 
vt -0.0624981 -52.625 
vt 0.0624981 -52.625 
vt 0.0624981 -52.625 
vt 5.96046e-08 -52.625 
vt 5.96046e-08 -52.7875 
vt 0.375 -53.375 
vt 0.25 -53.3125 
vt 5.96046e-08 -53.375 
vt 0.0624981 -53.375 
vt 0.0624981 -52.787 
vt -0.0624981 -53.375 
vt 0.0624981 -52.625 
vt -0.0624981 -52.625 
vt -0.0624981 -52.625 
vt -0.0624981 -53 
vt 0.0624981 -52.625 
vt -0.25 -53.3125 
vt -0.375 -53.375 
vt -5.96046e-08 -53.3125 
vt -0.0624981 -53 
vt 0.0624981 -53 
vt 0.0624981 -53 
vt -0.0624981 -53 
vt 0.0624981 -53.375 
vt -0.0624981 -53.375 
vt -0.0624981 -52.626 
vt -0.0624981 -53.375 
vt 0.0624981 -53.375 
vt -0.0624981 -52.625 
vt -0.0624981 -52.625 
vt 0.0624981 -52.625 
vt 0.0624981 -52.625 
vt -0.0624981 -52.625 
vt 0.0624981 -52.625 
vt -0.0624981 -53.25 
vt 0.0624981 -53.25 
vt -0.0624981 -53.0005 
vt 0.0624981 -53 
vt 0.0624981 -53 
vt -0.0624981 -53 
vt -0.0624981 -53 
vt -0.0624981 -52.7875 
vt -0.0624981 -52.7875 
vt 0.0624981 -52.7875 
vt -0.0624981 -53.3125 
vt 0.0624981 -53.3125 
vt 0.0624981 -52.7875 
vt -0.25 -53.3125 
vt -5.96046e-08 -52.7875 
vt -0.375 -53.375 
vt 0.25 -53.3125 
vt 0.375 -53.375 
vt 0.000490129 -52.626 
vt -0.0624981 -53 
vt 0.0624981 -53 
vt 0.0624981 -52.9995 
vt 5.96046e-08 -53.3125 
vt 0 -53.375 
vt -5.96046e-08 -53.3125 
vt 5.96046e-08 -53.3125 
vt 0 -53.375 
vt 0.000490248 -53.3125 
vt 0 -53.375 
vt 0 -53.375 
vt -5.96046e-08 -53.3125 
vt 5.96046e-08 -53.3125 
vt 0.000490189 -53.3125 
vt -5.96046e-08 -52.7875 
vt -5.96046e-08 -52.7875 
vt 5.96046e-08 -52.7875 
vt 0 -52.625 
vt 5.96046e-08 -52.7875 
vt -0.0624981 -52.7875 
vt -0.0624981 -53.3125 
vt 0.0624981 -52.7875 
vt 0.0624981 -53.3125 
vt -0.0624981 -52.75 
vt 0.0624981 -52.75 
vt 0 -52.625 

usemtl Triangle1Mtl

f 1/1/1 2/2/2 3/3/3 
f 4/4/4 5/5/5 6/6/6 
f 7/7/7 8/8/8 9/9/9 
f 8/8/8 10/10/10 9/9/9 
f 11/11/11 12/12/12 13/13/13 
f 12/12/12 14/14/14 13/13/13 
f 15/15/15 16/16/16 17/17/17 
f 18/18/18 19/19/19 20/20/20 
f 20/20/20 21/21/21 18/18/18 
f 18/18/18 21/21/21 22/22/22 
f 23/23/23 24/24/24 25/25/25 
f 24/24/24 26/26/26 25/25/25 
f 27/27/27 28/28/28 29/29/29 
f 28/28/28 30/30/30 29/29/29 
f 31/31/31 29/29/29 30/30/30 
f 32/32/32 33/33/33 34/34/34 
f 33/33/33 35/35/35 34/34/34 
f 36/36/36 34/34/34 35/35/35 
f 37/37/37 38/38/38 39/39/39 
f 40/40/40 22/22/22 41/41/41 
f 40/40/40 41/41/41 42/42/42 
f 38/38/38 43/43/43 39/39/39 
f 43/43/43 44/44/44 39/39/39 
f 45/45/45 46/46/46 47/47/47 
f 46/46/46 48/48/48 47/47/47 
f 49/49/49 50/50/50 51/51/51 
f 52/52/52 53/53/53 54/54/54 
f 53/53/53 55/55/55 54/54/54 
f 56/56/56 49/49/49 57/57/57 
f 51/51/51 57/57/57 49/49/49 
f 27/27/27 1/1/1 3/3/3 
f 58/58/58 59/59/59 60/60/60 
f 59/59/59 61/61/61 60/60/60 
f 61/61/61 62/62/62 60/60/60 
f 63/63/63 64/64/64 60/60/60 
f 63/63/63 60/60/60 62/62/62 
f 65/65/65 66/66/66 67/67/67 
f 66/66/66 68/68/68 67/67/67 
f 69/69/69 67/67/67 68/68/68 
f 69/69/69 70/70/70 67/67/67 
f 71/71/71 72/72/72 73/73/73 
f 74/74/74 75/75/75 76/76/76 
f 77/77/77 78/78/78 79/79/79 
f 31/31/31 80/80/80 81/81/81 
f 80/80/80 82/82/82 81/81/81 
f 83/83/83 42/42/42 84/84/84 
f 74/74/74 85/85/85 75/75/75 
f 85/85/85 86/86/86 75/75/75 
f 87/87/87 88/88/88 73/73/73 
f 88/88/88 71/71/71 73/73/73 
f 85/85/85 89/89/89 86/86/86 
f 30/30/30 90/90/90 31/31/31 
f 90/90/90 80/80/80 31/31/31 
f 27/27/27 3/3/3 28/28/28 
f 3/3/3 91/91/91 28/28/28 
f 18/18/18 92/92/92 93/93/93 
f 92/92/92 18/18/18 22/22/22 
f 94/94/94 95/95/95 74/74/74 
f 42/42/42 41/41/41 84/84/84 
f 22/22/22 40/40/40 92/92/92 
f 96/96/96 97/97/97 98/98/98 
f 99/99/99 98/98/98 97/97/97 
f 77/77/77 79/79/79 100/100/100 
f 79/79/79 101/101/101 100/100/100 
f 76/76/76 94/94/94 74/74/74 
f 102/102/102 73/73/73 72/72/72 

